<?xml version="1.0" encoding="UTF-8" standalone="no"?>
<!DOCTYPE svg PUBLIC "-//W3C//DTD SVG 1.1//EN" "http://www.w3.org/Graphics/SVG/1.1/DTD/svg11.dtd">
<svg version="1.1" xmlns="http://www.w3.org/2000/svg" xmlns:xlink="http://www.w3.org/1999/xlink" preserveAspectRatio="xMidYMid meet" viewBox="277.5238095238097 165.33465326429067 83.99999999999994 103.99999999999997" width="200" height="250"><defs><path d="M278.52 166.33L358.52 166.33L358.52 266.33L278.52 266.33L278.52 166.33Z" id="c1GjzOCrds"></path><path d="M292.27 175L332.27 175L332.27 186L292.27 186L292.27 175Z" id="j8mFnADfA"></path><path d="M347.27 192L317.27 192L317.27 203L347.27 203L347.27 192Z" id="cbqjvosZl"></path><path d="M322.27 209L292.27 209L292.27 220L322.27 220L322.27 209Z" id="aU3SrzpIZ"></path><path d="M347.27 228L317.27 228L317.27 239L347.27 239L347.27 228Z" id="f35lZwJfpg"></path><path d="M292.27 245L332.27 245L332.27 256L292.27 256L292.27 245Z" id="b1aB768ROj"></path></defs><g><g><use xlink:href="#c1GjzOCrds" opacity="1" fill="#140a18" fill-opacity="1"></use></g><g><use xlink:href="#j8mFnADfA" opacity="1" fill="#ffffff" fill-opacity="1"></use></g><g><use xlink:href="#cbqjvosZl" opacity="1" fill="#ffffff" fill-opacity="1"></use></g><g><use xlink:href="#aU3SrzpIZ" opacity="1" fill="#ffffff" fill-opacity="1"></use></g><g><use xlink:href="#f35lZwJfpg" opacity="1" fill="#ffffff" fill-opacity="1"></use></g><g><use xlink:href="#b1aB768ROj" opacity="1" fill="#ffffff" fill-opacity="1"></use></g></g></svg>